HIERARCHY
ROOT joint_Root
{
	OFFSET 0.0 0.0 0.0
	CHANNELS 6 Xposition Yposition Zposition Zrotation Xrotation Yrotation 
	JOINT Hips
	{
		OFFSET 4.5925 91.4895 -427.239
		CHANNELS 6 Xposition Yposition Zposition Zrotation Xrotation Yrotation 
		JOINT Spine
		{
			OFFSET 15.7357 0.0 0.0
			CHANNELS 6 Xposition Yposition Zposition Zrotation Xrotation Yrotation 
			JOINT Chest
			{
				OFFSET 8.98455 -0.406207 0.0
				CHANNELS 6 Xposition Yposition Zposition Zrotation Xrotation Yrotation 
				JOINT Neck
				{
					OFFSET 16.3773 0.0 0.0
					CHANNELS 6 Xposition Yposition Zposition Zrotation Xrotation Yrotation 
					JOINT Head
					{
						OFFSET 6.45672 0.0 0.0
						CHANNELS 6 Xposition Yposition Zposition Zrotation Xrotation Yrotation 
						End Site
						{
							OFFSET 0.0 0.0 0.0
						}
					}
				}
				JOINT Shoulder_L
				{
					OFFSET 12.9942 -0.242716 4.98039
					CHANNELS 6 Xposition Yposition Zposition Zrotation Xrotation Yrotation 
					JOINT UpperArm_L
					{
						OFFSET 5.34809 0.0 0.0
						CHANNELS 6 Xposition Yposition Zposition Zrotation Xrotation Yrotation 
						JOINT LowerArm_L
						{
							OFFSET 24.3286 1.87007e-05 0.0
							CHANNELS 6 Xposition Yposition Zposition Zrotation Xrotation Yrotation 
							JOINT Hand_L
							{
								OFFSET 22.2916 0.0 0.0
								CHANNELS 6 Xposition Yposition Zposition Zrotation Xrotation Yrotation 
								End Site
								{
									OFFSET 0.0 0.0 0.0
								}
							}
						}
					}
				}
				JOINT Shoulder_R
				{
					OFFSET 12.9945 -0.242716 -4.98039
					CHANNELS 6 Xposition Yposition Zposition Zrotation Xrotation Yrotation 
					JOINT UpperArm_R
					{
						OFFSET -5.34813 0.0 0.0
						CHANNELS 6 Xposition Yposition Zposition Zrotation Xrotation Yrotation 
						JOINT LowerArm_R
						{
							OFFSET -24.3289 0.000322201 0.0
							CHANNELS 6 Xposition Yposition Zposition Zrotation Xrotation Yrotation 
							JOINT Hand_R
							{
								OFFSET -22.2915 -0.000108084 0.0
								CHANNELS 6 Xposition Yposition Zposition Zrotation Xrotation Yrotation 
								End Site
								{
									OFFSET 0.0 0.0 0.0
								}
							}
						}
					}
				}
			}
		}
		JOINT UpperLeg_L
		{
			OFFSET -2.19248 -6.46944 0.0
			CHANNELS 6 Xposition Yposition Zposition Zrotation Xrotation Yrotation 
			JOINT LowerLeg_L
			{
				OFFSET 39.0811 0.0 -1.23785e-05
				CHANNELS 6 Xposition Yposition Zposition Zrotation Xrotation Yrotation 
				JOINT Foot_L
				{
					OFFSET 40.9854 0.0 -1.26872e-05
					CHANNELS 6 Xposition Yposition Zposition Zrotation Xrotation Yrotation 
					JOINT Toes_L
					{
						OFFSET 11.7543 0.0 0.0
						CHANNELS 6 Xposition Yposition Zposition Zrotation Xrotation Yrotation 
						End Site
						{
							OFFSET 0.0 0.0 0.0
						}
					}
				}
			}
		}
		JOINT UpperLeg_R
		{
			OFFSET -2.19251 6.46944 0.0
			CHANNELS 6 Xposition Yposition Zposition Zrotation Xrotation Yrotation 
			JOINT LowerLeg_R
			{
				OFFSET -39.0811 -0.00228153 -0.0401928
				CHANNELS 6 Xposition Yposition Zposition Zrotation Xrotation Yrotation 
				JOINT Foot_R
				{
					OFFSET -40.9854 0.0 0.0
					CHANNELS 6 Xposition Yposition Zposition Zrotation Xrotation Yrotation 
					JOINT Toes_R
					{
						OFFSET -11.7543 0.0 0.0
						CHANNELS 6 Xposition Yposition Zposition Zrotation Xrotation Yrotation 
						End Site
						{
							OFFSET 0.0 0.0 0.0
						}
					}
				}
			}
		}
	}
}
MOTION
Frames:	4
Frame Time:	0.0333333
0.000000 0.000000 0.000000 0.000000 0.000000 -0.000000 119.770000 90.242200 -124.779000 86.974600 3.159010 -0.941283 15.735700 0.000005 -0.000001 66.957800 84.380300 -65.881700 8.984550 -0.406207 -0.000000 2.626460 -4.443680 2.252760 16.377300 -0.000001 -0.000001 -1.023660 -3.298310 0.810762 6.456720 -0.000001 -0.000000 -7.457630 -0.290692 -1.160900 12.994200 -0.242716 4.980390 -90.766600 2.962690 -75.485400 5.348090 -0.000007 -0.000001 -52.010600 23.805400 -34.313600 24.328600 0.000019 0.000005 7.869710 10.820000 -36.363900 22.291600 -0.000001 0.000005 16.620400 5.240330 1.686950 12.994500 -0.242716 -4.980390 88.057400 9.068860 -77.856200 -5.348130 -0.000001 -0.000004 -68.611500 22.151200 3.579170 -24.328900 0.000322 -0.000009 1.244900 5.320830 -13.199500 -22.291500 -0.000108 -0.000004 13.482900 5.321990 -0.553058 -2.192480 -6.469440 -0.000000 -177.723000 -6.880070 0.480813 39.081100 -0.000007 -0.000012 0.011433 -0.019641 30.203200 40.985400 -0.000006 -0.000013 5.746040 1.361540 -74.601200 11.754300 -0.000000 0.000003 -0.006802 -0.077962 -19.750400 -2.192510 6.469440 -0.000001 178.958000 3.056380 152.023000 -39.081100 -0.002282 -0.040193 0.024834 -0.019290 48.206600 -40.985400 0.000008 0.000006 0.529927 2.991460 -62.085800 -11.754300 -0.000006 -0.000006 -0.021779 -0.176951 -23.806100
0.000000 0.000000 0.000000 0.000000 0.000000 -0.000000 119.433000 89.914700 -122.281000 87.247700 4.636090 -1.258760 15.735700 0.000005 -0.000001 63.968200 84.336800 -62.841500 8.984550 -0.406207 -0.000000 2.470450 -5.018910 2.360530 16.377300 -0.000001 -0.000001 -1.331800 -3.464740 1.045480 6.456720 -0.000001 -0.000000 -7.855460 -0.383366 -0.350214 12.994200 -0.242716 4.980390 -90.689100 2.733200 -75.842900 5.348090 -0.000007 -0.000001 -50.568000 23.808300 -36.421800 24.328600 0.000019 0.000005 8.990690 10.578900 -40.754600 22.291600 -0.000001 0.000005 16.861600 5.250530 1.418450 12.994500 -0.242716 -4.980390 88.049000 9.083350 -77.824000 -5.348130 -0.000001 -0.000004 -68.346000 21.840400 3.652920 -24.328900 0.000322 -0.000009 1.175400 4.805140 -13.774600 -22.291500 -0.000108 -0.000004 13.599600 5.326550 -0.685143 -2.192480 -6.469440 -0.000000 -177.140000 -6.352380 1.720080 39.081100 -0.000007 -0.000012 0.007416 -0.012742 30.196000 40.985400 -0.000006 -0.000013 5.479460 2.665510 -74.688300 11.754300 -0.000000 0.000003 -0.011297 -0.113095 -21.186400 -2.192510 6.469440 -0.000001 179.217000 3.390540 150.773000 -39.081100 -0.002282 -0.040193 0.006252 -0.003232 42.688200 -40.985400 0.000008 0.000006 -1.651840 5.322170 -62.509900 -11.754300 -0.000006 -0.000006 -0.022483 -0.180671 -23.959600
0.000000 0.000000 0.000000 0.000000 0.000000 -0.000000 119.017000 89.273100 -119.334000 87.547500 5.633360 -1.143440 15.735700 0.000005 -0.000001 62.513700 84.228300 -61.362800 8.984550 -0.406207 -0.000000 2.539750 -5.375830 2.419920 16.377300 -0.000001 -0.000001 -1.444260 -3.577550 1.213120 6.456720 -0.000001 -0.000000 -8.253500 -0.436529 0.329035 12.994200 -0.242716 4.980390 -90.683200 2.761150 -76.097400 5.348090 -0.000007 -0.000001 -49.646100 23.692100 -37.613000 24.328600 0.000019 0.000005 9.618270 9.837650 -44.765600 22.291600 -0.000001 0.000005 16.883600 5.270220 0.892331 12.994500 -0.242716 -4.980390 88.001800 9.372840 -77.908400 -5.348130 -0.000001 -0.000004 -67.777700 22.155500 3.161340 -24.328900 0.000322 -0.000009 1.097050 4.459510 -13.848200 -22.291500 -0.000108 -0.000004 13.593600 5.330010 -0.785876 -2.192480 -6.469440 -0.000000 -176.441000 -5.982720 3.324110 39.081100 -0.000007 -0.000012 0.004655 -0.007727 31.063600 40.985400 -0.000006 -0.000013 5.085770 3.707300 -75.033500 11.754300 -0.000000 0.000003 -0.021196 -0.173837 -23.681500 -2.192510 6.469440 -0.000001 -179.321000 5.331630 149.748000 -39.081100 -0.002282 -0.040193 -0.005385 0.010349 39.932500 -40.985400 0.000008 0.000006 -2.238280 5.321130 -63.284200 -11.754300 -0.000006 -0.000006 -0.022733 -0.181980 -24.013700
0.000000 0.000000 0.000000 0.000000 0.000000 -0.000000 118.482000 88.446100 -115.910000 87.596500 6.254240 -0.730831 15.735700 0.000005 -0.000001 61.635900 84.151200 -60.394300 8.984550 -0.406207 -0.000000 2.600720 -5.608540 2.609720 16.377300 -0.000001 -0.000001 -1.129240 -3.531340 1.261130 6.456720 -0.000001 -0.000000 -8.527960 -0.478766 0.867521 12.994200 -0.242716 4.980390 -90.731300 2.936150 -76.008100 5.348090 -0.000007 -0.000001 -49.261900 24.053400 -37.846000 24.328600 0.000019 0.000005 10.360100 9.435170 -48.116900 22.291600 -0.000001 0.000005 17.229900 5.284870 0.492544 12.994500 -0.242716 -4.980390 87.865000 10.082000 -77.978100 -5.348130 -0.000001 -0.000004 -66.725400 23.177900 2.128030 -24.328900 0.000322 -0.000009 1.054720 4.463740 -13.321500 -22.291500 -0.000108 -0.000004 13.544000 5.330180 -0.790806 -2.192480 -6.469440 -0.000000 -175.237000 -5.920380 4.956530 39.081100 -0.000007 -0.000012 0.001171 -0.001800 33.024300 40.985400 -0.000006 -0.000013 4.374480 4.843360 -75.186800 11.754300 -0.000000 0.000003 -0.038504 -0.254105 -27.010800 -2.192510 6.469440 -0.000001 -176.261000 8.753520 148.448000 -39.081100 -0.002282 -0.040193 0.017871 -0.017107 40.467900 -40.985400 0.000008 0.000006 3.210100 5.442810 -61.915600 -11.754300 -0.000006 -0.000006 -0.020941 -0.172447 -23.620400
